<?xml version="1.0" standalone="no"?>
<!DOCTYPE svg PUBLIC "-//W3C//DTD SVG 20010904//EN"
 "http://www.w3.org/TR/2001/REC-SVG-20010904/DTD/svg10.dtd">
<svg version="1.0" xmlns="http://www.w3.org/2000/svg"
 width="1024.000000pt" height="1024.000000pt" viewBox="0 0 1024.000000 1024.000000"
 preserveAspectRatio="xMidYMid meet">
<metadata>
Created by potrace 1.14, written by Peter Selinger 2001-2017
</metadata>
<g transform="translate(0.000000,1024.000000) scale(0.100000,-0.100000)"
fill="#000000" stroke="none">
<path d="M20 8448 c11 -18 23 -40 27 -48 4 -8 20 -37 36 -65 80 -135 127 -219
127 -226 0 -5 5 -9 10 -9 6 0 10 -4 10 -9 0 -5 23 -49 51 -98 28 -48 61 -104
72 -123 11 -19 28 -48 38 -65 11 -16 26 -43 34 -60 9 -16 24 -43 35 -60 10
-16 25 -41 33 -55 7 -14 24 -43 37 -65 12 -22 34 -60 48 -85 13 -25 28 -49 32
-55 6 -8 88 -150 180 -310 9 -16 29 -50 44 -75 15 -25 29 -53 33 -62 3 -10 9
-18 14 -18 5 0 9 -4 9 -10 0 -8 55 -107 99 -180 49 -80 151 -262 151 -269 0
-5 4 -11 8 -13 5 -1 32 -46 62 -98 29 -52 61 -107 71 -122 11 -14 19 -33 19
-42 0 -9 4 -16 10 -16 5 0 16 -15 25 -32 8 -18 19 -40 25 -48 5 -8 47 -80 93
-160 47 -80 110 -190 142 -245 32 -55 71 -125 88 -155 16 -30 36 -62 43 -71 8
-8 14 -18 14 -22 0 -3 61 -111 136 -239 75 -128 145 -249 155 -268 10 -19 30
-53 43 -75 14 -22 31 -51 39 -65 7 -14 23 -42 35 -62 12 -21 30 -53 41 -70 10
-18 82 -142 160 -276 77 -134 141 -247 141 -253 0 -5 5 -9 10 -9 6 0 10 -4 10
-10 0 -5 23 -48 50 -95 28 -46 51 -88 51 -92 0 -5 6 -15 13 -23 7 -8 44 -69
82 -135 38 -66 74 -129 81 -140 7 -11 20 -36 30 -55 10 -19 20 -37 23 -40 3
-3 13 -18 22 -35 l17 -30 968 -1 c591 0 969 -4 969 -10 2 -9 -34 -74 -127
-231 -27 -45 -49 -87 -49 -93 0 -5 -4 -10 -9 -10 -5 0 -11 -8 -14 -17 -7 -22
-62 -118 -88 -155 -10 -14 -19 -29 -19 -32 0 -3 -14 -29 -31 -58 -18 -29 -40
-66 -49 -83 -124 -216 -175 -304 -188 -325 -9 -14 -17 -27 -17 -30 0 -3 -13
-24 -28 -47 -15 -24 -27 -45 -27 -47 0 -3 -25 -46 -55 -97 -30 -50 -55 -95
-55 -100 0 -5 -4 -9 -10 -9 -5 0 -10 -5 -10 -10 0 -6 -40 -80 -90 -165 -49
-85 -90 -157 -90 -160 0 -3 776 -5 1724 -5 1716 0 1725 0 1731 20 3 11 11 20
16 20 5 0 9 4 9 10 0 5 23 47 50 94 28 47 50 89 50 95 0 6 3 11 8 11 4 0 12
10 18 23 6 12 28 51 49 87 21 36 60 103 87 150 27 47 53 92 58 100 31 48 110
193 110 201 0 5 4 9 10 9 5 0 12 11 16 25 3 14 10 25 14 25 4 0 10 8 13 18 6
18 40 78 105 186 23 37 42 70 42 72 0 2 20 37 44 77 24 39 55 92 68 117 30 53
75 131 148 255 29 50 64 110 78 135 28 51 108 187 122 210 6 8 14 24 20 35 5
11 22 41 37 67 114 192 203 350 203 358 0 6 4 10 9 10 5 0 11 8 15 18 3 9 11
26 18 37 34 54 88 145 88 149 0 2 24 44 52 93 29 48 57 96 63 105 5 9 23 41
39 70 16 29 33 56 38 59 5 3 8 8 7 10 -2 2 22 47 53 99 31 52 57 100 58 105 1
6 7 17 14 25 8 8 25 35 38 60 14 25 43 74 63 110 21 36 43 75 49 87 6 13 14
23 19 23 4 0 7 5 7 11 0 6 32 64 70 129 39 65 70 123 70 129 0 5 4 11 8 13 5
2 28 38 53 82 24 43 56 99 71 125 15 25 39 66 53 91 14 25 39 68 55 95 16 28
35 61 43 75 49 89 258 447 267 457 6 7 11 16 12 20 0 5 6 17 13 28 42 69 125
215 125 221 0 4 7 15 15 24 13 14 -125 16 -1715 16 l-1729 0 -19 -36 c-10 -19
-61 -107 -112 -195 -51 -88 -102 -178 -114 -200 -12 -22 -27 -46 -33 -53 -7
-7 -13 -20 -13 -28 0 -8 -4 -14 -10 -14 -5 0 -10 -5 -10 -10 0 -6 -18 -40 -40
-76 -22 -36 -40 -68 -40 -71 0 -2 -16 -29 -35 -59 -19 -30 -35 -57 -35 -59 0
-3 -20 -38 -44 -78 -24 -39 -55 -92 -68 -117 -14 -25 -49 -85 -78 -135 -29
-49 -62 -106 -72 -125 -11 -19 -35 -60 -54 -91 -19 -31 -34 -61 -34 -67 0 -6
-4 -12 -8 -14 -4 -1 -21 -25 -36 -53 -16 -27 -40 -70 -54 -95 -39 -69 -234
-405 -237 -408 -2 -3 -45 68 -90 150 -11 21 -56 99 -100 174 -112 191 -125
213 -153 264 -14 25 -33 57 -43 72 -11 14 -19 28 -19 30 0 6 -247 430 -258
443 -9 11 -19 36 -20 49 0 5 -4 12 -9 15 -11 7 -37 49 -67 104 -31 59 -49 90
-62 107 -6 8 -25 40 -42 71 -29 55 -43 79 -79 137 -10 15 -18 29 -18 32 0 3
-10 21 -21 40 -40 66 -162 275 -257 440 -53 91 -99 170 -104 175 -4 6 -17 29
-28 52 -11 24 -23 43 -27 43 -5 0 -8 4 -8 9 0 10 -103 189 -120 209 -6 6 -8
12 -5 12 3 0 -6 18 -20 40 -14 22 -25 44 -25 50 0 5 -3 10 -7 10 -5 0 -13 10
-19 23 -6 12 -41 74 -78 137 -38 63 -99 169 -137 235 -39 66 -74 127 -79 135
-13 21 -137 235 -168 290 -14 25 -36 62 -49 83 l-23 37 -1725 0 -1725 0 20
-32z"/>
</g>
</svg>
